<?xml version="1.0" encoding="UTF-8"?>
<svg width="30px" height="30px" viewBox="0 0 30 30" version="1.1" xmlns="http://www.w3.org/2000/svg" xmlns:xlink="http://www.w3.org/1999/xlink">
    <!-- Generator: sketchtool 52.4 (67378) - http://www.bohemiancoding.com/sketch -->
    <title>91B04F89-979B-415F-89B1-2D0A012AEF93</title>
    <desc>Created with sketchtool.</desc>
    <g id="Page-1" stroke="none" stroke-width="1" fill="none" fill-rule="evenodd">
        <g id="3.-Assign-Hardware" transform="translate(-723.000000, -298.000000)">
            <g id="Add" transform="translate(723.000000, 298.000000)">
                <circle id="Oval-2" stroke="#979797" stroke-width="1.5" fill="#FFFFFF" fill-rule="nonzero" cx="15" cy="15" r="14.25"></circle>
                <polygon id="+" fill="#979797" points="22.9694118 11.0835294 19.6505882 11.0835294 19.6505882 14.5835294 18.3411765 14.5835294 18.3411765 11.0835294 15.0388235 11.0835294 15.0388235 9.86470588 18.3411765 9.86470588 18.3411765 6.38117647 19.6505882 6.38117647 19.6505882 9.86470588 22.9694118 9.86470588"></polygon>
                <path d="M13.0001315,16.8906429 C11.8305086,16.8906429 10.8822844,15.7958929 10.8822844,14.4453214 C10.8822844,13.0948571 11.1935502,12 13.0001315,12 C14.8065625,12 15.1179786,13.0948571 15.1179786,14.4453214 C15.1179786,15.7958929 14.1696417,16.8906429 13.0001315,16.8906429 Z M16.9956043,20.5256786 C16.9980839,20.6760714 16.9994365,20.7021429 17,20.68875 C17,20.7286429 16.9998497,20.78725 16.9998497,20.8715 C16.9998497,20.8715 16.4110559,22 13.0001315,22 C9.58905686,22 9.00030056,20.8715 9.00030056,20.8715 C9.00030056,20.7403571 9.00015028,20.6650357 9,20.6242857 C9.00056355,20.6460714 9.00232933,20.6362857 9.00601117,20.4492143 C9.05105735,18.1585 9.39403204,17.4980357 11.8403143,17.07825 C11.8403143,17.07825 12.1885863,17.5 13.0001315,17.5 C13.811564,17.5 14.159836,17.07825 14.159836,17.07825 C16.6331309,17.5026429 16.956419,18.173 16.9956043,20.5256786 Z" id="Combined-Shape" fill="#979797"></path>
            </g>
        </g>
    </g>
</svg>