<?xml version="1.0" encoding="UTF-8"?>
<svg width="19px" height="18px" viewBox="0 0 19 18" version="1.1" xmlns="http://www.w3.org/2000/svg" xmlns:xlink="http://www.w3.org/1999/xlink">
    <!-- Generator: sketchtool 52.2 (67145) - http://www.bohemiancoding.com/sketch -->
    <title>F46E6195-8B2D-43A0-9031-112BC96208B1</title>
    <desc>Created with sketchtool.</desc>
    <g id="Page-1" stroke="none" stroke-width="1" fill="none" fill-rule="evenodd">
        <g id="1.2.-Employee-ID-Card-Request" transform="translate(-1175.000000, -430.000000)" fill="#323232" fill-rule="nonzero" stroke="#323232" stroke-width="0.2">
            <g id="1-copy-2" transform="translate(117.000000, 391.000000)">
                <path d="M1069.29268,53.1219512 C1068.95549,53.1219512 1068.68293,52.8493902 1068.68293,52.5121951 L1068.68293,45.804878 C1068.68293,45.4676829 1068.95549,45.195122 1069.29268,45.195122 C1069.62988,45.195122 1069.90244,45.4676829 1069.90244,45.804878 L1069.90244,52.5121951 C1069.90244,52.8493902 1069.62988,53.1219512 1069.29268,53.1219512 Z M1065.63415,53.1219512 C1065.29695,53.1219512 1065.02439,52.8493902 1065.02439,52.5121951 L1065.02439,45.804878 C1065.02439,45.4676829 1065.29695,45.195122 1065.63415,45.195122 C1065.97134,45.195122 1066.2439,45.4676829 1066.2439,45.804878 L1066.2439,52.5121951 C1066.2439,52.8493902 1065.97134,53.1219512 1065.63415,53.1219512 Z M1075.39024,42.7560976 L1072.34146,42.7560976 L1072.34146,41.5365854 C1072.34146,40.5280488 1071.52744,39.7073171 1070.52622,39.7073171 L1064.41463,39.7073171 C1063.4061,39.7073171 1062.58537,40.5280488 1062.58537,41.5365854 L1062.58537,42.7560976 L1059.53659,42.7560976 C1059.19939,42.7560976 1058.92683,43.0286585 1058.92683,43.3658537 C1058.92683,43.7030488 1059.19939,43.9756098 1059.53659,43.9756098 L1075.39024,43.9756098 C1075.72744,43.9756098 1076,43.7030488 1076,43.3658537 C1076,43.0286585 1075.72744,42.7560976 1075.39024,42.7560976 Z M1063.80488,41.5365854 C1063.80488,41.2006098 1064.07866,40.9268293 1064.41463,40.9268293 L1070.52622,40.9268293 C1070.86037,40.9268293 1071.12195,41.1945122 1071.12195,41.5365854 L1071.12195,42.7560976 L1063.80488,42.7560976 L1063.80488,41.5365854 Z M1071.73415,56.7804878 L1063.19634,56.7804878 C1062.1878,56.7804878 1061.36707,55.9597561 1061.36707,54.9512195 L1061.36707,45.7957317 C1061.36707,45.4591463 1061.64024,45.1859756 1061.97683,45.1859756 C1062.31341,45.1859756 1062.58659,45.4591463 1062.58659,45.7957317 L1062.58659,54.9512195 C1062.58659,55.2878049 1062.86037,55.5609756 1063.19634,55.5609756 L1071.73415,55.5609756 C1072.07073,55.5609756 1072.3439,55.2878049 1072.3439,54.9512195 L1072.3439,45.8207317 C1072.3439,45.4841463 1072.61646,45.2109756 1072.95366,45.2109756 C1073.29085,45.2109756 1073.56341,45.4841463 1073.56341,45.8207317 L1073.56341,54.9512195 C1073.56341,55.9597561 1072.74268,56.7804878 1071.73415,56.7804878 Z" id="Shape-2-Copy"></path>
            </g>
        </g>
    </g>
</svg>