<?xml version="1.0" encoding="UTF-8"?>
<svg width="18px" height="18px" viewBox="0 0 18 18" version="1.1" xmlns="http://www.w3.org/2000/svg" xmlns:xlink="http://www.w3.org/1999/xlink">
    <!-- Generator: sketchtool 52.2 (67145) - http://www.bohemiancoding.com/sketch -->
    <title>F2BEEB0C-C6BB-4753-AD05-297AAF9C82A1</title>
    <desc>Created with sketchtool.</desc>
    <g id="Page-1" stroke="none" stroke-width="1" fill="none" fill-rule="evenodd">
        <g id="1.2.-Employee-ID-Card-Request" transform="translate(-1122.000000, -331.000000)" fill="#323232" fill-rule="nonzero" stroke="#323232" stroke-width="0.7">
            <g id="1-copy" transform="translate(117.000000, 292.000000)">
                <path d="M1022.5369,42.9965797 L1019.35752,39.8171996 C1019.21101,39.6706896 1018.97419,39.6706896 1018.82768,39.8171996 L1006.10979,52.5347202 C1006.03934,52.6051649 1006,52.6999655 1006,52.7996373 L1006,55.9790174 C1006,56.1862298 1006.16787,56.3537234 1006.37471,56.3537234 L1009.55409,56.3537234 C1009.65338,56.3537234 1009.74893,56.3143793 1009.819,56.2439345 L1022.5369,43.526414 C1022.60734,43.4559693 1022.64669,43.3607939 1022.64669,43.2614969 C1022.64669,43.1621998 1022.60697,43.0670245 1022.5369,42.9965797 Z M1009.39858,55.6046862 L1006.74904,55.6046862 L1006.74904,52.9551403 L1016.97251,42.7316626 L1019.62206,45.3812085 L1009.39858,55.6046862 Z M1020.15227,44.8513743 L1017.50272,42.2018284 L1019.0926,40.611951 L1021.74215,43.2614969 L1020.15227,44.8513743 Z" id="Shape-1-Copy"></path>
            </g>
        </g>
    </g>
</svg>