<?xml version="1.0" encoding="UTF-8"?>
<svg width="40px" height="40px" viewBox="0 0 40 40" version="1.1" xmlns="http://www.w3.org/2000/svg" xmlns:xlink="http://www.w3.org/1999/xlink">
    <!-- Generator: sketchtool 52.4 (67378) - http://www.bohemiancoding.com/sketch -->
    <title>A32BBB47-2224-4C77-B128-2A1723287418</title>
    <desc>Created with sketchtool.</desc>
    <g id="Page-1" stroke="none" stroke-width="1" fill="none" fill-rule="evenodd" opacity="0.400000006">
        <g id="3.-Assign-Hardware" transform="translate(-1021.000000, -338.000000)" fill="#727272">
            <g id="Group" transform="translate(905.000000, 338.000000)">
                <g id="idea" transform="translate(116.000000, 0.000000)">
                    <path d="M5.4175,13.94875 C5.4175,14.483125 4.98429688,14.9163281 4.44976563,14.9163281 L0.96765625,14.9163281 C0.433203125,14.9163281 0,14.483125 0,13.94875 C0,13.4142969 0.433203125,12.9810937 0.96765625,12.9810937 L4.44984375,12.9810937 C4.98429688,12.9810937 5.4175,13.4142969 5.4175,13.94875 Z M38.9758594,12.9810937 C39.5101563,12.9810937 39.9435156,13.4142969 39.9435156,13.94875 C39.9435156,14.483125 39.5101563,14.9163281 38.9758594,14.9163281 L35.4936719,14.9163281 C34.9592969,14.9163281 34.5260156,14.483125 34.5260156,13.94875 C34.5260156,13.4142969 34.9592969,12.9810937 35.4936719,12.9810937 L38.9758594,12.9810937 Z M7.06789063,25.4839063 C7.44585938,25.1060156 8.05859375,25.1060156 8.43648438,25.4839063 C8.814375,25.861875 8.814375,26.4746094 8.43648438,26.8524219 L5.90351563,29.3852344 C5.7146875,29.5742188 5.46695313,29.6686719 5.21929688,29.6686719 C4.97171875,29.6686719 4.7240625,29.5742188 4.53507813,29.3852344 C4.15726562,29.0072656 4.15726562,28.3946094 4.53507813,28.0167187 L7.06789063,25.4839063 Z M30.4892188,4.39882813 C30.2416406,4.39882813 29.9939844,4.30429687 29.8049219,4.11554687 C29.4270313,3.73765625 29.4270313,3.12492187 29.8049219,2.74710938 L32.2682813,0.283671875 C32.6463281,-0.09421875 33.2588281,-0.09421875 33.6367969,0.283671875 C34.0146875,0.661484375 34.0146875,1.27421875 33.6367969,1.65210937 L31.1734375,4.11546875 C30.9845313,4.30429687 30.7369531,4.39882813 30.4892188,4.39882813 Z M8.76875,4.11429688 L6.3065625,1.6521875 C5.92867188,1.27421875 5.92867188,0.661484375 6.3065625,0.283671875 C6.68453125,-0.094140625 7.29726563,-0.094140625 7.67515625,0.283671875 L10.1371875,2.74570312 C10.5150781,3.12367188 10.5150781,3.73640625 10.1371875,4.11429688 C9.94835938,4.303125 9.700625,4.39773438 9.45296875,4.39773438 C9.20539063,4.39773438 8.95773438,4.303125 8.76875,4.11429688 Z M32.8847656,25.4933594 L35.4082031,28.0170313 C35.7860938,28.3948438 35.7860938,29.0075781 35.4082031,29.3854688 C35.2192188,29.574375 34.9717188,29.6689063 34.7239844,29.6689063 C34.4763281,29.6689063 34.22875,29.5744531 34.0397656,29.3854688 L31.51625,26.8619531 C31.1383594,26.4840625 31.1383594,25.8713281 31.51625,25.4934375 C31.8942969,25.1154688 32.5067969,25.1154688 32.8847656,25.4933594 Z" id="Combined-Shape"></path>
                    <path d="M27.3323438,23.8078906 C25.6040625,26.2342188 24.6599219,28.9433594 24.5915625,31.6628906 L22.4288281,31.6628906 L23.1585938,20.6669531 L25.0203906,16.6892188 C25.1607031,16.3895313 25.138125,16.0388281 24.9604688,15.7596094 C24.7828906,15.4803906 24.4749219,15.31125 24.1439844,15.31125 L15.7992969,15.31125 C15.4683594,15.31125 15.1604688,15.4803906 14.9828125,15.7596094 C14.8052344,16.03875 14.7825781,16.3894531 14.9228906,16.6891406 L16.7847656,20.6667969 L17.5146094,31.6628125 L15.3515625,31.6628125 C15.2832813,28.943125 14.3392188,26.2341406 12.6107813,23.8078125 C10.833125,21.3123438 9.77195313,18.1398438 9.77195313,15.32125 C9.77195313,9.38921875 14.3475,4.56328125 19.9715625,4.56328125 C25.595625,4.56328125 30.1711719,9.38921875 30.1711719,15.32125 C30.17125,18.1399219 29.1100781,21.3125 27.3323438,23.8078906 Z M18.7038281,20.3573438 C18.6958594,20.2375 18.665625,20.1200781 18.6146875,20.01125 L17.3207031,17.2466406 L22.6227344,17.2466406 L21.32875,20.01125 C21.2778906,20.1200781 21.2475781,20.2375 21.2395312,20.3573438 L20.4891406,31.6628906 L19.4542188,31.6628906 L18.7038281,20.3573438 Z M24.5876562,38.0648438 L15.355625,38.0648438 L15.355625,36.7991406 L19.9716406,36.7991406 C20.5060938,36.7991406 20.939375,36.3659375 20.939375,35.8314844 C20.939375,35.2970313 20.5060938,34.8638281 19.9716406,34.8638281 L15.355625,34.8638281 L15.355625,33.5982031 L24.5878125,33.5982031 L24.5889063,38.0646875 C24.5889063,38.0648438 24.5885156,38.0648438 24.5876562,38.0648438 Z M19.9717188,2.62804688 C13.2805469,2.62804688 7.83679688,8.3221875 7.83679688,15.3213281 C7.83679688,18.5752344 9.00234375,22.0777344 11.0346875,24.9307031 C12.5955469,27.1217188 13.4204688,29.5595313 13.4204688,31.9807031 L13.4204688,38.0646875 C13.4204688,39.131875 14.2885938,40 15.3557812,40 L24.5877344,40 C25.6548438,40 26.5230469,39.131875 26.5230469,38.0646875 L26.5230469,31.9807031 C26.5230469,29.5596094 27.3479688,27.1217188 28.9086719,24.9307031 C30.9410156,22.0777344 32.1066406,18.5752344 32.1066406,15.3213281 C32.1065625,8.3221875 26.6628906,2.62804688 19.9717188,2.62804688 Z" id="Fill-11"></path>
                </g>
            </g>
        </g>
    </g>
</svg>