<?xml version="1.0" encoding="UTF-8"?>
<svg width="15px" height="15px" viewBox="0 0 15 15" version="1.1" xmlns="http://www.w3.org/2000/svg" xmlns:xlink="http://www.w3.org/1999/xlink">
    <!-- Generator: sketchtool 52.4 (67378) - http://www.bohemiancoding.com/sketch -->
    <title>A763318B-5548-4E66-A036-C6593EE2D00B</title>
    <desc>Created with sketchtool.</desc>
    <g id="Page-1" stroke="none" stroke-width="1" fill="none" fill-rule="evenodd">
        <g id="2.-Hardware-request-statistics" transform="translate(-858.000000, -23.000000)" fill="#3F444A">
            <g id="header">
                <g id="search" transform="translate(483.000000, 22.000000)">
                    <path d="M389.860842,15.1511626 C389.953614,15.2437635 390,15.3595129 390,15.4984143 C390,15.6373156 389.953614,15.753065 389.860842,15.8456659 C389.757761,15.9485558 389.63922,16 389.505215,16 C389.37121,16 389.252668,15.9485558 389.149588,15.8456659 L385.235873,11.8342513 C384.689545,12.3075448 384.07107,12.6779428 383.380428,12.9454565 C382.689787,13.2129703 381.957924,13.3467251 381.184818,13.3467251 C380.329247,13.3467251 379.525229,13.184676 378.772739,12.8605728 C378.020249,12.5364697 377.363119,12.096622 376.801328,11.5410166 C376.239538,10.9854112 375.798874,10.3320702 375.479323,9.58097395 C375.159773,8.82987775 375,8.02734865 375,7.17336256 C375,6.31937647 375.159773,5.51684736 375.479323,4.76575116 C375.798874,4.01465496 376.239538,3.36131396 376.801328,2.80570855 C377.363119,2.25010314 378.020249,1.81025546 378.772739,1.4861523 C379.525229,1.16204915 380.329247,1 381.184818,1 C382.03008,1 382.828945,1.16204915 383.581435,1.4861523 C384.333925,1.81025546 384.991055,2.25010314 385.552845,2.80570855 C386.114636,3.36131396 386.557877,4.01465496 386.882581,4.76575116 C387.207286,5.51684736 387.369636,6.31937647 387.369636,7.17336256 C387.369636,7.92445875 387.240786,8.63696056 386.983084,9.31088934 C386.725382,9.98481812 386.374913,10.5892872 385.931665,11.1243146 L389.860842,15.1511626 Z M381.184818,12.3744205 C381.896075,12.3744205 382.568668,12.2380934 383.202615,11.9654352 C383.836562,11.692777 384.388036,11.3198068 384.857053,10.8465133 C385.326071,10.3732198 385.697156,9.82276712 385.970321,9.19513879 C386.243485,8.56751046 386.380065,7.89359179 386.380065,7.17336256 C386.380065,6.45313332 386.243485,5.77921465 385.970321,5.15158632 C385.697156,4.52395799 385.326071,3.97350533 384.857053,3.50021183 C384.388036,3.02691834 383.836562,2.65394808 383.202615,2.38128987 C382.568668,2.10863166 381.896075,1.9723046 381.184818,1.9723046 C380.463252,1.9723046 379.785506,2.10863166 379.151559,2.38128987 C378.517612,2.65394808 377.966138,3.02691834 377.49712,3.50021183 C377.028102,3.97350533 376.657017,4.52395799 376.383853,5.15158632 C376.110689,5.77921465 375.974109,6.45313332 375.974109,7.17336256 C375.974109,7.89359179 376.110689,8.56751046 376.383853,9.19513879 C376.657017,9.82276712 377.028102,10.3732198 377.49712,10.8465133 C377.966138,11.3198068 378.517612,11.692777 379.151559,11.9654352 C379.785506,12.2380934 380.463252,12.3744205 381.184818,12.3744205 Z" id="magnifier---simple-line-icons"></path>
                </g>
            </g>
        </g>
    </g>
</svg>